<svg xmlns="http://www.w3.org/2000/svg" width="17" height="12" viewBox="0 0 17 12"><defs><style>.cls-1{fill:#e6ac10;fill-rule:evenodd}</style></defs><path id="Forma_1" data-name="Forma 1" class="cls-1" d="M424.291 4814h-15.582a.714.714 0 0 0-.709.72v10.55a.723.723 0 0 0 .709.73h15.582a.723.723 0 0 0 .709-.73v-10.55a.714.714 0 0 0-.709-.72zm-5.2 6.5c1.315.91 4.713 3.6 4.713 3.6a.413.413 0 0 1 .077.48.3.3 0 0 1-.414.13s-3.617-2.67-5-3.64a.123.123 0 0 0-.145.01l-1.517 1.24a.486.486 0 0 1-.616 0l-1.535-1.25a.093.093 0 0 0-.113-.01c-1.368.98-4.969 3.65-4.969 3.65a.352.352 0 0 1-.46-.13.414.414 0 0 1 .077-.48s3.4-2.68 4.7-3.59c.074-.05 0-.12 0-.12l-4.8-4.42a.492.492 0 0 1-.119-.6.351.351 0 0 1 .3-.18.406.406 0 0 1 .25.1l6.824 6.12a.275.275 0 0 0 .316 0l6.824-6.12a.406.406 0 0 1 .25-.1.351.351 0 0 1 .3.18.49.49 0 0 1-.119.6l-4.811 4.43s-.075.06-.015.1z" transform="translate(-408 -4814)"/></svg>