<svg xmlns="http://www.w3.org/2000/svg" width="16.969" height="15" viewBox="0 0 16.969 15"><defs><style>.cls-1{fill:#e6ac10;fill-rule:evenodd}</style></defs><path class="cls-1" d="M.269 7.19l3.917 1.48 1.517 4.94a.459.459 0 0 0 .732.23l2.183-1.81a.668.668 0 0 1 .8-.02l3.938 2.9a.459.459 0 0 0 .723-.28L16.964.56a.464.464 0 0 0-.618-.53L.27 6.32a.466.466 0 0 0-.001.87zm5.189.69l7.656-4.77a.133.133 0 0 1 .161.21L6.957 9.27a1.331 1.331 0 0 0-.406.8l-.215 1.61a.2.2 0 0 1-.387.03l-.828-2.95a.8.8 0 0 1 .337-.88z"/></svg>