<svg xmlns="http://www.w3.org/2000/svg" width="51" height="51" viewBox="0 0 51 51"><defs><style>.cls-1{fill:#ecab00;fill-rule:evenodd}</style></defs><path id="Forma_1" data-name="Forma 1" class="cls-1" d="M580.5 4636a25.5 25.5 0 1 0 25.5 25.5 25.5 25.5 0 0 0-25.5-25.5zm0 47.81a22.31 22.31 0 1 1 22.312-22.31 22.312 22.312 0 0 1-22.312 22.31zm11.634-31.25l-16.4 16.25-6.823-6.68a1.607 1.607 0 0 0-2.276 0 1.577 1.577 0 0 0 0 2.25l7.967 7.81a1.654 1.654 0 0 0 2.276 0l17.53-17.37a1.591 1.591 0 0 0 0-2.26 1.627 1.627 0 0 0-2.274 0z" transform="translate(-555 -4636)"/></svg>