<svg xmlns="http://www.w3.org/2000/svg" width="87" height="87" viewBox="0 0 87 87"><defs><style>.cls-1{fill:#da9600;fill-rule:evenodd}</style></defs><path id="Forma_1" data-name="Forma 1" class="cls-1" d="M562.15 6508.65a5.8 5.8 0 0 1-5.8-5.8 1.45 1.45 0 0 0-1.45-1.45h-46.4a1.45 1.45 0 0 0-1.45 1.45 5.8 5.8 0 0 1-5.8 5.8 1.45 1.45 0 0 0-1.45 1.45v11.6a1.45 1.45 0 0 0 1.45 1.45 5.8 5.8 0 0 1 5.8 5.8 1.45 1.45 0 0 0 1.45 1.45h46.4a1.45 1.45 0 0 0 1.45-1.45 5.8 5.8 0 0 1 5.8-5.8 1.45 1.45 0 0 0 1.45-1.45v-11.6a1.45 1.45 0 0 0-1.45-1.45zm-1.45 11.72a8.718 8.718 0 0 0-7.13 7.13h-43.741a8.717 8.717 0 0 0-7.129-7.13v-8.94a8.717 8.717 0 0 0 7.129-7.13h43.741a8.718 8.718 0 0 0 7.13 7.13v8.94zm-29-11.72a7.25 7.25 0 1 0 7.25 7.25 7.256 7.256 0 0 0-7.25-7.25zm0 11.6a4.35 4.35 0 1 1 4.35-4.35 4.354 4.354 0 0 1-4.35 4.35zm47.85-36.25h-72.5a1.45 1.45 0 0 0-1.45 1.45v4.35h-4.35a1.45 1.45 0 0 0-1.45 1.45v4.35h-4.35a1.45 1.45 0 0 0-1.45 1.45v37.7a1.45 1.45 0 0 0 1.45 1.45h72.5a1.45 1.45 0 0 0 1.45-1.45v-4.35h4.35a1.45 1.45 0 0 0 1.45-1.45v-4.35h4.35a1.45 1.45 0 0 0 1.45-1.45v-37.7a1.45 1.45 0 0 0-1.45-1.45zm-13.05 44.95v4.35h-69.6v-34.8h69.6v30.45zm5.8-1.45h-2.9v-30.45a1.45 1.45 0 0 0-1.45-1.45H502.7v-2.9h69.6v34.8zm5.8-5.8h-2.9v-30.45a1.45 1.45 0 0 0-1.45-1.45H508.5v-2.9h69.6v34.8zm2.32 32.19l-17.4-13.05a1.448 1.448 0 0 0-2.32 1.16v5.8h-23.2a1.45 1.45 0 0 0-1.45 1.45v11.6a1.45 1.45 0 0 0 1.45 1.45h23.2v7.25a1.451 1.451 0 0 0 .835 1.31 1.473 1.473 0 0 0 .615.14 1.413 1.413 0 0 0 .929-.34l17.4-14.5a1.439 1.439 0 0 0 .521-1.15 1.457 1.457 0 0 0-.58-1.12zm-16.82 12.56v-5.6a1.45 1.45 0 0 0-1.45-1.45h-23.2v-8.7h23.2a1.45 1.45 0 0 0 1.45-1.45v-4.35l13.614 10.21zm-31.9-18.65h-5.8a1.45 1.45 0 0 0-1.45 1.45v11.6a1.45 1.45 0 0 0 1.45 1.45h5.8a1.45 1.45 0 0 0 1.45-1.45v-11.6a1.45 1.45 0 0 0-1.45-1.45zm-1.45 11.6h-2.9v-8.7h2.9v8.7zm-13.05-11.6h-5.8a1.45 1.45 0 0 0-1.45 1.45v11.6a1.45 1.45 0 0 0 1.45 1.45h5.8a1.45 1.45 0 0 0 1.45-1.45v-11.6a1.45 1.45 0 0 0-1.45-1.45zm-1.45 11.6h-2.9v-8.7h2.9v8.7zm-14.5-11.6h-5.8a1.45 1.45 0 0 0-1.45 1.45v11.6a1.45 1.45 0 0 0 1.45 1.45h5.8a1.45 1.45 0 0 0 1.45-1.45v-11.6a1.45 1.45 0 0 0-1.45-1.45zm-1.45 11.6h-2.9v-8.7h2.9v8.7z" transform="translate(-494 -6484)"/></svg>